<?xml version="1.0" encoding="UTF-8" standalone="no"?>
<svg width="737px" height="439px" viewBox="0 0 737 439" version="1.1" xmlns="http://www.w3.org/2000/svg" xmlns:xlink="http://www.w3.org/1999/xlink" style="background: #FFFFFF;">
    <!-- Generator: Sketch 3.8.3 (29802) - http://www.bohemiancoding.com/sketch -->
    <title> Sample application for Jenkins CD on Container Engine</title>
    <desc>Created with Sketch.</desc>
    <defs>
        <rect id="path-1" x="0" y="0" width="136" height="48" rx="2"></rect>
        <mask id="mask-2" maskContentUnits="userSpaceOnUse" maskUnits="objectBoundingBox" x="0" y="0" width="136" height="48" fill="white">
            <use xlink:href="#path-1"></use>
        </mask>
        <linearGradient x1="50%" y1="1.55913058e-15%" x2="50%" y2="99.8449301%" id="linearGradient-3">
            <stop stop-color="#4387FD" offset="0%"></stop>
            <stop stop-color="#4683EA" offset="100%"></stop>
        </linearGradient>
        <path d="M0.337000781,14.3112895 C-0.112334245,13.499859 -0.112334245,12.5001353 0.337000781,11.6887048 L6.07929766,1.31898684 C6.52863346,0.507557268 7.35903893,0.00769659857 8.25770859,0.00769736842 L19.7422914,0.00769736842 C20.6409611,0.00769659857 21.4713665,0.507557268 21.9207023,1.31898684 L27.6629992,11.6887105 C28.1123342,12.500141 28.1123342,13.4998647 27.6629992,14.3112952 L21.9207023,24.6810132 C21.4713679,25.4924449 20.6409622,25.9923079 19.7422914,25.9923083 L8.25770859,25.9923083 C7.3590378,25.9923079 6.52863207,25.4924449 6.07929766,24.6810132 L0.337000781,14.3112895 Z" id="path-4"></path>
        <rect id="path-6" x="0" y="0" width="114" height="32" rx="2"></rect>
        <mask id="mask-7" maskContentUnits="userSpaceOnUse" maskUnits="objectBoundingBox" x="0" y="0" width="114" height="32" fill="white">
            <use xlink:href="#path-6"></use>
        </mask>
        <rect id="path-8" x="0" y="0" width="114" height="32" rx="2"></rect>
        <mask id="mask-9" maskContentUnits="userSpaceOnUse" maskUnits="objectBoundingBox" x="0" y="0" width="114" height="32" fill="white">
            <use xlink:href="#path-8"></use>
        </mask>
        <rect id="path-10" x="0" y="0" width="114" height="32" rx="2"></rect>
        <mask id="mask-11" maskContentUnits="userSpaceOnUse" maskUnits="objectBoundingBox" x="0" y="0" width="114" height="32" fill="white">
            <use xlink:href="#path-10"></use>
        </mask>
        <rect id="path-12" x="0" y="0" width="114" height="32" rx="2"></rect>
        <mask id="mask-13" maskContentUnits="userSpaceOnUse" maskUnits="objectBoundingBox" x="0" y="0" width="114" height="32" fill="white">
            <use xlink:href="#path-12"></use>
        </mask>
        <rect id="path-14" x="0" y="0" width="114" height="32" rx="2"></rect>
        <mask id="mask-15" maskContentUnits="userSpaceOnUse" maskUnits="objectBoundingBox" x="0" y="0" width="114" height="32" fill="white">
            <use xlink:href="#path-14"></use>
        </mask>
    </defs>
    <g id="Icons" stroke="none" stroke-width="1" fill="none" fill-rule="evenodd">
        <g id="-Sample-application-for-Jenkins-CD-on-Container-Engine">
            <rect id="Rectangle-1355-Copy" fill="#F5F5F5" x="28" y="99" width="684" height="307"></rect>
            <path d="M516.349462,389 L212.650538,389 C211.738616,389 211,388.387632 211,387.631579 L211,182.368421 C211,181.612368 211.738616,181 212.650538,181 L516.349462,181 C517.261384,181 518,181.612368 518,182.368421 L518,387.631579 C518,388.387632 517.261384,389 516.349462,389" id="Fill-9" stroke="#FFFFFF" fill="#E1F5FE"></path>
            <text id="Container-Engine" font-family="Roboto-Medium, Roboto" font-size="14" font-weight="400" letter-spacing="-0.1428" fill="#000000">
                <tspan x="312" y="381">Kubernetes Engine</tspan>
            </text>
            <g id="Group" transform="translate(40.000000, 110.000000)">
                <text id="Google-Cloud-Platfor" font-family="Roboto-Medium, Roboto" font-size="14" font-weight="400" fill="#000000">
                    <tspan x="28" y="15.12475">Google Cloud Platform</tspan>
                </text>
                <polygon id="Fill-335" fill="#CECDCA" points="6.8517 16.0473 3.0647 9.4893 6.8517 2.9303 14.4247 2.9303 18.2117 9.4893 14.4247 16.0473"></polygon>
                <path d="M7.4944,15.2222 L4.1274,9.4662 L2.2824,6.3112 C2.1474,6.0782 2.0914,5.7592 2.1134,5.4542 L0.1744,8.8132 C-0.0576,9.2152 -0.0576,9.8722 0.1744,10.2742 L4.8394,18.3552 C5.0714,18.7572 5.6414,19.0862 6.1054,19.0862 L11.6584,19.0862 C11.8804,18.9552 12.0744,18.7762 12.1874,18.5802 L14.0884,15.2222 L7.4944,15.2222 Z" id="Fill-336" fill="#F3B41A"></path>
                <polygon id="Fill-337" fill="#DC462F" points="21.368 8.8128 16.702 0.7318 18.598 4.0148"></polygon>
                <path d="M21.368,8.8128 L18.598,4.0148 C18.358,3.8678 18.083,3.7748 17.836,3.7748 L14.081,3.7748 L17.328,9.4978 L14.088,15.2218 L12.187,18.5808 C12.074,18.7768 11.881,18.9548 11.658,19.0858 L15.437,19.0858 C15.901,19.0858 16.47,18.7578 16.702,18.3558 L18.558,15.1418 L21.368,10.2738 C21.6,9.8728 21.6,9.2148 21.368,8.8128" id="Fill-338" fill="#DC462F"></path>
                <path d="M16.7024,0.7317 C16.4704,0.3297 15.9004,0.000700000001 15.4364,0.000700000001 L11.7674,0.000700000001 L6.1054,0.000700000001 C5.6414,0.000700000001 5.0714,0.3297 4.8394,0.7317 L2.1134,5.4547 C2.0914,5.7597 2.1474,6.0777 2.2824,6.3107 L4.1274,9.4667 L7.4224,3.7747 L14.0814,3.7747 L17.8364,3.7747 C18.0824,3.7747 18.3584,3.8677 18.5984,4.0147 L16.7024,0.7317 Z" id="Fill-339" fill="#517DBE"></path>
                <polygon id="Fill-340" fill="#CECDCA" points="4.1278 9.4665 7.4948 15.2225 14.0878 15.2225 17.3278 9.4975 14.0808 3.7745 7.4228 3.7745"></polygon>
                <path d="M2.2317,5.2476 L2.1127,5.4546 C2.0907,5.7596 2.1467,6.0776 2.2817,6.3106 L4.1267,9.4666 L5.1087,7.7706 L2.2317,5.2476 Z" id="Fill-341" fill="#4F71A8"></path>
                <path d="M18.723,4.23 L18.599,4.015 C18.359,3.868 18.084,3.774 17.837,3.774 L14.082,3.774 L15.059,5.497 L18.723,4.23 Z" id="Fill-342" fill="#C2432F"></path>
                <path d="M10.7647,12.4826 C9.1377,12.4826 7.8137,11.1586 7.8137,9.5306 C7.8137,7.9036 9.1377,6.5796 10.7647,6.5796 C12.3917,6.5796 13.7157,7.9036 13.7157,9.5306 C13.7157,11.1586 12.3917,12.4826 10.7647,12.4826" id="Fill-344" fill="#FFFFFF"></path>
                <path d="M10.7647,6.5374 C9.1137,6.5374 7.7707,7.8804 7.7707,9.5314 C7.7707,11.1814 9.1137,12.5244 10.7647,12.5244 C12.4157,12.5244 13.7587,11.1814 13.7587,9.5314 C13.7587,7.8804 12.4157,6.5374 10.7647,6.5374 M10.7647,6.6214 C12.3717,6.6214 13.6737,7.9244 13.6737,9.5314 C13.6737,11.1374 12.3717,12.4404 10.7647,12.4404 C9.1577,12.4404 7.8557,11.1374 7.8557,9.5314 C7.8557,7.9244 9.1577,6.6214 10.7647,6.6214" id="Fill-345" fill="#C9C7C5"></path>
                <path d="M6.3459,2.427 C6.0319,2.427 5.7759,2.172 5.7759,1.858 C5.7759,1.544 6.0319,1.288 6.3459,1.288 C6.6599,1.288 6.9149,1.544 6.9149,1.858 C6.9149,2.172 6.6599,2.427 6.3459,2.427" id="Fill-346" fill="#FFFFFF"></path>
                <path d="M6.3459,1.246 C6.0089,1.246 5.7339,1.52 5.7339,1.858 C5.7339,2.195 6.0089,2.469 6.3459,2.469 C6.6829,2.469 6.9579,2.195 6.9579,1.858 C6.9579,1.52 6.6829,1.246 6.3459,1.246 M6.3459,1.33 C6.6369,1.33 6.8729,1.566 6.8729,1.858 C6.8729,2.149 6.6369,2.385 6.3459,2.385 C6.0549,2.385 5.8189,2.149 5.8189,1.858 C5.8189,1.566 6.0549,1.33 6.3459,1.33" id="Fill-347" fill="#4472B7"></path>
                <path d="M15.677,1.8575 C15.677,2.1485 15.441,2.3845 15.15,2.3845 C14.859,2.3845 14.622,2.1485 14.622,1.8575 C14.622,1.5665 14.859,1.3305 15.15,1.3305 C15.441,1.3305 15.677,1.5665 15.677,1.8575" id="Fill-348" fill="#FFFFFF"></path>
                <path d="M15.677,1.8575 C15.677,2.1485 15.441,2.3845 15.15,2.3845 C14.859,2.3845 14.622,2.1485 14.622,1.8575 C14.622,1.5665 14.859,1.3305 15.15,1.3305 C15.441,1.3305 15.677,1.5665 15.677,1.8575 L15.677,1.8575 Z" id="Stroke-349" stroke="#4472B7"></path>
                <path d="M19.5815,10.1006 C19.2675,10.1006 19.0125,9.8446 19.0125,9.5306 C19.0125,9.2176 19.2675,8.9616 19.5815,8.9616 C19.8955,8.9616 20.1505,9.2176 20.1505,9.5306 C20.1505,9.8446 19.8955,10.1006 19.5815,10.1006" id="Fill-354" fill="#FFFFFF"></path>
                <path d="M19.5815,8.9194 C19.2445,8.9194 18.9695,9.1934 18.9695,9.5314 C18.9695,9.8684 19.2445,10.1424 19.5815,10.1424 C19.9185,10.1424 20.1935,9.8684 20.1935,9.5314 C20.1935,9.1934 19.9185,8.9194 19.5815,8.9194 M19.5815,9.0034 C19.8725,9.0034 20.1085,9.2394 20.1085,9.5314 C20.1085,9.8224 19.8725,10.0584 19.5815,10.0584 C19.2905,10.0584 19.0545,9.8224 19.0545,9.5314 C19.0545,9.2394 19.2905,9.0034 19.5815,9.0034" id="Fill-355" fill="#DD482F"></path>
                <path d="M1.9063,10.1006 C1.5923,10.1006 1.3373,9.8446 1.3373,9.5306 C1.3373,9.2176 1.5923,8.9616 1.9063,8.9616 C2.2203,8.9616 2.4753,9.2176 2.4753,9.5306 C2.4753,9.8446 2.2203,10.1006 1.9063,10.1006" id="Fill-356" fill="#FFFFFF"></path>
                <path d="M1.9063,8.9194 C1.5693,8.9194 1.2943,9.1934 1.2943,9.5314 C1.2943,9.8684 1.5693,10.1424 1.9063,10.1424 C2.2433,10.1424 2.5183,9.8684 2.5183,9.5314 C2.5183,9.1934 2.2433,8.9194 1.9063,8.9194 M1.9063,9.0034 C2.1973,9.0034 2.4333,9.2394 2.4333,9.5314 C2.4333,9.8224 2.1973,10.0584 1.9063,10.0584 C1.6153,10.0584 1.3793,9.8224 1.3793,9.5314 C1.3793,9.2394 1.6153,9.0034 1.9063,9.0034" id="Fill-357" fill="#F2AF1C"></path>
            </g>
            <g id="Group-6" transform="translate(290.000000, 40.000000)">
                <path d="M78,72.5 L78,0" id="Stroke-242" stroke="#616161"></path>
                <g id="Group-8-Copy" transform="translate(79.000000, 198.500000) scale(1, -1) translate(-79.000000, -198.500000) translate(3.000000, 179.000000)" stroke="#616161">
                    <polyline id="Path-3918" points="67.2012531 0.0123116419 67.2012531 15.6182734 0.3338372 15.6182734 0.3338372 35.2488992"></polyline>
                    <polyline id="Path-3918-Copy" points="85 0.0645817043 85 15.6705435 151.867416 15.6705435 151.867416 38.9999989"></polyline>
                </g>
                <polygon id="Fill-244" fill="#616161" transform="translate(78.032000, 71.271500) rotate(90.000000) translate(-78.032000, -71.271500) " points="76.546 68 76 68.586 78.89 71.271 76 73.957 76.546 74.543 80.064 71.271"></polygon>
                <g id="Group-8" transform="translate(0.000000, 110.000000)">
                    <polygon id="Fill-244" fill="#616161" transform="translate(3.271500, 41.271500) rotate(90.000000) translate(-3.271500, -41.271500) " points="1.7855 38 1.2395 38.586 4.1295 41.271 1.2395 43.957 1.7855 44.543 5.3035 41.271"></polygon>
                    <polygon id="Fill-244-Copy" fill="#616161" transform="translate(154.771500, 41.032000) rotate(90.000000) translate(-154.771500, -41.032000) " points="153.2855 37.7605 152.7395 38.3465 155.6295 41.0315 152.7395 43.7175 153.2855 44.3035 156.8035 41.0315"></polygon>
                    <polygon id="Fill-244-Copy-2" fill="#616161" transform="translate(88.271500, 107.032000) rotate(90.000000) translate(-88.271500, -107.032000) " points="86.7855 103.7605 86.2395 104.3465 89.1295 107.0315 86.2395 109.7175 86.7855 110.3035 90.3035 107.0315"></polygon>
                    <polygon id="Fill-244-Copy-3" fill="#616161" transform="translate(70.271500, 107.032000) rotate(90.000000) translate(-70.271500, -107.032000) " points="68.7855 103.7605 68.2395 104.3465 71.1295 107.0315 68.2395 109.7175 68.7855 110.3035 72.3035 107.0315"></polygon>
                    <polyline id="Path-3918" stroke="#616161" points="70.2012531 0.903544971 70.2012531 29.6808394 3.3338372 29.6808394 3.3338372 42.6409107"></polyline>
                    <polyline id="Path-3918-Copy" stroke="#616161" transform="translate(121.433708, 21.883701) scale(-1, 1) translate(-121.433708, -21.883701) " points="154.867416 1 154.867416 29.7772944 88 29.7772944 88 42.7674026"></polyline>
                </g>
                <g id="Group-8-Copy-2" transform="translate(0.000000, 239.000000)">
                    <polygon id="Fill-244" fill="#616161" transform="translate(3.271500, 41.271500) rotate(90.000000) translate(-3.271500, -41.271500) " points="1.7855 38 1.2395 38.586 4.1295 41.271 1.2395 43.957 1.7855 44.543 5.3035 41.271"></polygon>
                    <polygon id="Fill-244-Copy" fill="#616161" transform="translate(154.771500, 41.032000) rotate(90.000000) translate(-154.771500, -41.032000) " points="153.2855 37.7605 152.7395 38.3465 155.6295 41.0315 152.7395 43.7175 153.2855 44.3035 156.8035 41.0315"></polygon>
                    <polyline id="Path-3918" stroke="#616161" points="70.2012531 0.903544971 70.2012531 29.6808394 3.3338372 29.6808394 3.3338372 42.6409107"></polyline>
                    <polyline id="Path-3918-Copy" stroke="#616161" transform="translate(121.433708, 21.883701) scale(-1, 1) translate(-121.433708, -21.883701) " points="154.867416 1 154.867416 29.7772944 88 29.7772944 88 42.7674026"></polyline>
                </g>
            </g>
            <g id="Group-12" transform="translate(295.000000, 116.000000)">
                <g id="Group-2">
                    <g id="Group-11-Copy-25">
                        <g id="Group-10">
                            <g id="Group-9">
                                <use id="Rectangle-1781" stroke="#E0E0E0" mask="url(#mask-2)" stroke-width="2" fill="#FFFFFF" xlink:href="#path-1"></use>
                                <text id="Google-Load-Balancer" font-family="Roboto-Regular, Roboto" font-size="12" font-weight="normal" fill="#000000">
                                    <tspan x="50.3066667" y="22">Google Load </tspan>
                                    <tspan x="50.3066667" y="36">Balancer</tspan>
                                </text>
                            </g>
                        </g>
                    </g>
                </g>
                <g id="Load-Balancing_512px-Copy" transform="translate(15.000000, 11.000000)">
                    <g id="Load-Balancing">
                        <path d="M6.07929766,24.6810132 L0.337000781,14.3112895 C-0.112334245,13.499859 -0.112334245,12.5001353 0.337000781,11.6887048 L6.07929766,1.31898684 C6.52863346,0.507557268 7.35903893,0.00769659857 8.25770859,0.00769736842 L19.7422914,0.00769736842 C20.6409611,0.00769659857 21.4713665,0.507557268 21.9207023,1.31898684 L27.6629992,11.6887105 C28.1123342,12.500141 28.1123342,13.4998647 27.6629992,14.3112952 L21.9207023,24.6810132 C21.4713679,25.4924449 20.6409622,25.9923079 19.7422914,25.9923083 L8.25770859,25.9923083 C7.3590378,25.9923079 6.52863207,25.4924449 6.07929766,24.6810132 L6.07929766,24.6810132 Z" id="Shape" fill="url(#linearGradient-3)"></path>
                        <g id="Clipped">
                            <mask id="mask-5" fill="white">
                                <use xlink:href="#path-4"></use>
                            </mask>
                            <use id="Shape" fill="#4285F4" xlink:href="#path-4"></use>
                            <polygon id="Shape" fill="#3B77DB" mask="url(#mask-5)" points="17.2442266 8.0353114 11.9036641 9.88307895 10.7181484 10.6439211 12.4772812 12.4779474 9.953125 12.7149123 10.0078125 15.1849123 8.67710156 17.0482456 17.3245625 26.0641447 21.4375 26.2280702 26.383875 17.5644254"></polygon>
                        </g>
                        <rect id="Rectangle-path" fill="#FFFFFF" x="13.6171875" y="10.4342105" width="0.765625" height="4.96052632"></rect>
                        <path d="M9.82962422,12.2587719 L10.390625,12.2587719 L10.390625,15.6798246 L9.625,15.6798246 L9.625,12.4721145 C9.625,12.3542886 9.71661338,12.2587719 9.82962422,12.2587719 L9.82962422,12.2587719 Z" id="Shape" fill="#FFFFFF"></path>
                        <path d="M17.609375,12.2587719 L18.1703758,12.2587719 C18.2833866,12.2587719 18.375,12.3542886 18.375,12.4721145 L18.375,15.6798246 L17.609375,15.6798246 L17.609375,12.2587719 L17.609375,12.2587719 Z" id="Shape" fill="#FFFFFF"></path>
                        <path d="M9.82835547,12.2587719 L18.1716445,12.2587719 C18.2255778,12.2587719 18.277302,12.2811097 18.3154386,12.3208711 C18.3535751,12.3606325 18.375,12.4145605 18.375,12.4707917 L18.375,13.0570175 L9.625,13.0570175 L9.625,12.4707917 C9.625,12.3536964 9.71604534,12.2587719 9.82835547,12.2587719 L9.82835547,12.2587719 Z" id="Shape" fill="#FFFFFF"></path>
                        <rect id="Rectangle-path" fill="#FFFFFF" x="10.6640625" y="7.98245614" width="6.671875" height="2.73684211" rx="0.15"></rect>
                        <rect id="Rectangle-path" fill="#FFFFFF" x="12.578125" y="14.7105263" width="2.84375" height="2.39473684" rx="0.15"></rect>
                        <path d="M8.5859375,14.8676517 C8.5859375,14.7808737 8.65623283,14.7105263 8.73882985,14.7105263 L11.2767951,14.7105263 C11.3612353,14.7105263 11.4296875,14.7697224 11.4296875,14.8676517 L11.4296875,16.9481378 C11.4296875,17.0349157 11.3593922,17.1052632 11.2767951,17.1052632 L8.73882985,17.1052632 C8.65438974,17.1052632 8.5859375,17.0460671 8.5859375,16.9481378 L8.5859375,14.8676517 Z" id="Rectangle-path" fill="#FFFFFF"></path>
                        <rect id="Rectangle-path" fill="#FFFFFF" x="16.5703125" y="14.7105263" width="2.84375" height="2.39473684" rx="0.15"></rect>
                    </g>
                </g>
            </g>
            <g id="Group-10-Copy-8" transform="translate(313.000000, 261.000000)">
                <use id="Rectangle-1759" stroke="#E0E0E0" mask="url(#mask-7)" stroke-width="2" fill="#F4B400" xlink:href="#path-6"></use>
                <text id="Backend-Service" font-family="Roboto-Regular, Roboto" font-size="12" font-weight="normal" fill="#FFFFFF">
                    <tspan x="13.0166016" y="21">Backend Service</tspan>
                </text>
            </g>
            <g id="Group-10-Copy-7" transform="translate(235.000000, 325.000000)">
                <use id="Rectangle-1759" stroke="#E0E0E0" mask="url(#mask-9)" stroke-width="2" fill="#03A9F4" xlink:href="#path-8"></use>
                <text id="Backend-Pod" font-family="Roboto-Regular, Roboto" font-size="12" font-weight="normal" fill="#FFFFFF">
                    <tspan x="21.9667969" y="21">Backend Pod</tspan>
                </text>
            </g>
            <g id="Group-10-Copy-10" transform="translate(390.000000, 325.000000)">
                <use id="Rectangle-1759" stroke="#E0E0E0" mask="url(#mask-11)" stroke-width="2" fill="#03A9F4" xlink:href="#path-10"></use>
                <text id="Backend-Pod" font-family="Roboto-Regular, Roboto" font-size="12" font-weight="normal" fill="#FFFFFF">
                    <tspan x="21.9667969" y="21">Backend Pod</tspan>
                </text>
            </g>
            <g id="Group-4" transform="translate(318.000000, 30.000000)">
                <g id="Group">
                    <g id="Group-7">
                        <g id="Group-5">
                            <path d="M1.59090909,47.5 C0.933068182,47.5 0.397727273,46.827 0.397727273,46 L0.397727273,2 C0.397727273,1.173 0.933068182,0.5 1.59090909,0.5 L103.409091,0.5 C104.066932,0.5 104.602273,1.173 104.602273,2 L104.602273,46 C104.602273,46.827 104.066932,47.5 103.409091,47.5 L1.59090909,47.5 Z" id="Fill-1" fill="#FFFFFF"></path>
                            <path d="M103.409091,0 L1.59090909,0 C0.711931818,0 0,0.896 0,2 L0,46 C0,47.105 0.711931818,48 1.59090909,48 L103.409091,48 C104.288068,48 105,47.105 105,46 L105,2 C105,0.896 104.288068,0 103.409091,0 M103.409091,1 C103.847386,1 104.204545,1.449 104.204545,2 L104.204545,46 C104.204545,46.551 103.847386,47 103.409091,47 L1.59090909,47 C1.15261364,47 0.795454545,46.551 0.795454545,46 L0.795454545,2 C0.795454545,1.449 1.15261364,1 1.59090909,1 L103.409091,1" id="Fill-3" fill="#E0E0E0"></path>
                        </g>
                        <text id="Users" font-family="Roboto-Regular, Roboto" font-size="12" font-weight="normal" fill="#000000">
                            <tspan x="56" y="27.9375">Users</tspan>
                        </text>
                    </g>
                </g>
                <g id="laptop" transform="translate(14.000000, 13.000000)" fill="#616161">
                    <path d="M27.5,19.25 C29.0125,19.25 30.25,18.0125 30.25,16.5 L30.25,2.75 C30.25,1.2375 29.0125,0 27.5,0 L5.5,0 C3.9875,0 2.75,1.2375 2.75,2.75 L2.75,16.5 C2.75,18.0125 3.9875,19.25 5.5,19.25 L0,19.25 L0,22 L33,22 L33,19.25 L27.5,19.25 L27.5,19.25 Z M5.5,2.75 L27.5,2.75 L27.5,16.5 L5.5,16.5 L5.5,2.75 L5.5,2.75 Z" id="Shape"></path>
                </g>
            </g>
            <g id="Group-10-Copy-6" transform="translate(234.000000, 194.000000)">
                <use id="Rectangle-1759" stroke="#E0E0E0" mask="url(#mask-13)" stroke-width="2" fill="#03A9F4" xlink:href="#path-12"></use>
                <text id="Frontend-Pod" font-family="Roboto-Regular, Roboto" font-size="12" font-weight="normal" fill="#FFFFFF">
                    <tspan x="21.1845703" y="21">Frontend Pod</tspan>
                </text>
            </g>
            <g id="Group-10-Copy-9" transform="translate(391.000000, 194.000000)">
                <use id="Rectangle-1759" stroke="#E0E0E0" mask="url(#mask-15)" stroke-width="2" fill="#03A9F4" xlink:href="#path-14"></use>
                <text id="Frontend-Pod" font-family="Roboto-Regular, Roboto" font-size="12" font-weight="normal" fill="#FFFFFF">
                    <tspan x="21.1845703" y="21">Frontend Pod</tspan>
                </text>
            </g>
        </g>
    </g>
</svg>
